HIERARCHY
ROOT Hips
{
	OFFSET 0.00000 0.00000 0.00000
	CHANNELS 6 Xposition Yposition Zposition Zrotation Yrotation Xrotation 
	JOINT LHipJoint
	{
		OFFSET 0 0 0
		CHANNELS 3 Zrotation Yrotation Xrotation
		JOINT LeftUpLeg
		{
			OFFSET 1.61328 -1.70571 0.84375
			CHANNELS 3 Zrotation Yrotation Xrotation
			JOINT LeftLeg
			{
				OFFSET 2.32400 -6.38513 0.00000
				CHANNELS 3 Zrotation Yrotation Xrotation
				JOINT LeftFoot
				{
					OFFSET 2.58843 -7.11166 0.00000
					CHANNELS 3 Zrotation Yrotation Xrotation
					JOINT LeftToeBase
					{
						OFFSET 0.17200 -0.47257 2.47970
						CHANNELS 3 Zrotation Yrotation Xrotation
						End Site
						{
							OFFSET 0.00000 -0.00000 1.26912
						}
					}
				}
			}
		}
	}
	JOINT RHipJoint
	{
		OFFSET 0 0 0
		CHANNELS 3 Zrotation Yrotation Xrotation
		JOINT RightUpLeg
		{
			OFFSET -1.49930 -1.70570 0.84375
			CHANNELS 3 Zrotation Yrotation Xrotation
			JOINT RightLeg
			{
				OFFSET -2.30458 -6.33178 0.00000
				CHANNELS 3 Zrotation Yrotation Xrotation
				JOINT RightFoot
				{
					OFFSET -2.62261 -7.20556 0.00000
					CHANNELS 3 Zrotation Yrotation Xrotation
					JOINT RightToeBase
					{
						OFFSET -0.18709 -0.51403 2.51340
						CHANNELS 3 Zrotation Yrotation Xrotation
						End Site
						{
							OFFSET -0.00000 -0.00000 1.28858
						}
					}
				}
			}
		}
	}
	JOINT LowerBack
	{
		OFFSET 0 0 0
		CHANNELS 3 Zrotation Yrotation Xrotation
		JOINT Spine
		{
			OFFSET -0.03798 2.19274 -0.19881
			CHANNELS 3 Zrotation Yrotation Xrotation
			JOINT Spine1
			{
				OFFSET -0.00024 2.19460 0.05248
				CHANNELS 3 Zrotation Yrotation Xrotation
				JOINT Neck
				{
					OFFSET 0 0 0
					CHANNELS 3 Zrotation Yrotation Xrotation
					JOINT Neck1
					{
						OFFSET -0.00746 1.82323 0.17286
						CHANNELS 3 Zrotation Yrotation Xrotation
						JOINT Head
						{
							OFFSET 0.11826 1.82121 -0.27841
							CHANNELS 3 Zrotation Yrotation Xrotation
							End Site
							{
								OFFSET 0.03496 1.85543 -0.11495
							}
						}
					}
				}
				JOINT LeftShoulder
				{
					OFFSET 0 0 0
					CHANNELS 3 Zrotation Yrotation Xrotation
					JOINT LeftArm
					{
						OFFSET 3.71926 0.78840 0.25473
						CHANNELS 3 Zrotation Yrotation Xrotation
						JOINT LeftForeArm
						{
							OFFSET 5.37587 -0.00000 0.00000
							CHANNELS 3 Zrotation Yrotation Xrotation
							JOINT LeftHand
							{
								OFFSET 3.35977 -0.00000 0.00000
								CHANNELS 3 Zrotation Yrotation Xrotation
								JOINT LeftFingerBase
								{
									OFFSET 0 0 0
									CHANNELS 3 Zrotation Yrotation Xrotation
									JOINT LeftHandIndex1
									{
										OFFSET 0.56186 -0.00000 0.00000
										CHANNELS 3 Zrotation Yrotation Xrotation
										End Site
										{
											OFFSET 0.45299 -0.00000 0.00000
										}
									}
								}
								JOINT LThumb
								{
									OFFSET 0 0 0
									CHANNELS 3 Zrotation Yrotation Xrotation
									End Site
									{
										OFFSET 0.45990 -0.00000 0.45990
									}
								}
							}
						}
					}
				}
				JOINT RightShoulder
				{
					OFFSET 0 0 0
					CHANNELS 3 Zrotation Yrotation Xrotation
					JOINT RightArm
					{
						OFFSET -3.65136 0.56074 0.01624
						CHANNELS 3 Zrotation Yrotation Xrotation
						JOINT RightForeArm
						{
							OFFSET -5.22819 -0.00000 0.00000
							CHANNELS 3 Zrotation Yrotation Xrotation
							JOINT RightHand
							{
								OFFSET -3.40764 -0.00000 0.00000
								CHANNELS 3 Zrotation Yrotation Xrotation
								JOINT RightFingerBase
								{
									OFFSET 0 0 0
									CHANNELS 3 Zrotation Yrotation Xrotation
									JOINT RightHandIndex1
									{
										OFFSET -0.58325 -0.00000 0.00000
										CHANNELS 3 Zrotation Yrotation Xrotation
										End Site
										{
											OFFSET -0.47024 -0.00000 0.00000
										}
									}
								}
								JOINT RThumb
								{
									OFFSET 0 0 0
									CHANNELS 3 Zrotation Yrotation Xrotation
									End Site
									{
										OFFSET -0.47742 -0.00000 0.47742
									}
								}
							}
						}
					}
				}
			}
		}
	}
}
MOTION
Frames: 15
Frame Time: .0083333
49.6709 16.3175 -6.2784 532.9550 -105.5890 1273.2100 0.0000 0.0000 0.0000 -18.1418 -5.9980 -12.1021 3.1523 10.9375 32.0695 1.6633 -1.2560 -24.0297 1.1496 -6.8078 -19.1473 0.0000 0.0000 0.0000 21.8832 10.5821 -20.7027 -5.3004 -13.7143 42.1047 -2.6150 0.3767 -30.5436 -0.2747 -3.3712 9.3141 -0.9919 -0.2566 1.7958 -0.1637 -0.3706 2.4946 0.3892 -0.2106 1.5540 -7.4477 -7.7155 -2.6448 17.2280 -9.3442 -12.4475 6.4856 -5.1188 -1.9453 0.0000 -0.0000 0.0000 -74.9006 3.8202 31.8103 34.5255 -44.4703 -14.4799 -0.0000 0.0000 -20.9213 19.2517 17.8723 6.1178 -7.1250 0.0000 -0.0000 -8.5574 48.6486 -0.7753 0.0000 -0.0000 0.0000 84.1166 -10.4368 36.8502 -29.7635 40.6898 -11.2551 0.0000 -0.0000 -15.7238 -26.5070 7.3708 -3.6610 7.1250 -0.0000 -0.0000 0.2162 -21.7543 0.1206
49.6902 16.3059 -6.2582 532.9680 -105.2910 1273.1600 0.0000 0.0000 0.0000 -18.3428 -6.0918 -12.2155 3.2117 11.0301 32.3816 1.6707 -0.8451 -24.2026 1.1345 -6.7647 -19.0202 0.0000 0.0000 0.0000 21.7115 10.7207 -20.8141 -5.3576 -13.7756 42.3457 -2.6490 0.4023 -30.7362 -0.2049 -2.9145 8.0407 -0.9169 -0.2233 1.9078 -0.1418 -0.3284 2.5628 0.3698 -0.1894 1.5603 -7.3312 -7.6360 -2.8171 17.0822 -9.2201 -12.7088 6.4290 -5.0626 -2.0238 0.0000 -0.0000 0.0000 -75.4381 3.6386 31.7637 34.9562 -44.7808 -14.7825 -0.0000 0.0000 -21.0959 18.9047 17.8248 5.9846 -7.1250 0.0000 -0.0000 -8.8741 48.5482 -0.7824 0.0000 -0.0000 0.0000 84.5571 -10.4220 36.4176 -29.4001 40.3736 -11.0189 0.0000 -0.0000 -15.8856 -26.8575 7.4840 -3.7736 7.1250 -0.0000 -0.0000 -0.0334 -21.6030 -0.0188
49.7090 16.2933 -6.2375 533.0300 -104.9350 1273.0500 0.0000 0.0000 0.0000 -18.5691 -6.1303 -12.3126 3.2695 11.1190 32.6823 1.6770 -0.4628 -24.3645 1.1130 -6.7023 -18.8364 0.0000 0.0000 0.0000 21.5127 10.8754 -20.9273 -5.4235 -13.8454 42.6218 -2.6768 0.4937 -30.8725 -0.1503 -2.4983 6.8850 -0.8797 -0.1749 2.0438 -0.1276 -0.2666 2.6347 0.3636 -0.1590 1.5570 -7.2110 -7.5502 -2.9764 16.9452 -9.0885 -12.9727 6.3756 -5.0040 -2.1055 0.0000 0.0000 0.0000 -76.0399 3.4831 31.7044 35.3304 -45.0466 -15.0467 -0.0000 0.0000 -21.2522 18.5398 17.7690 5.8437 -7.1250 0.0000 -0.0000 -9.2047 48.4374 -0.7867 0.0000 0.0000 0.0000 84.9786 -10.3492 36.0437 -29.0130 40.0322 -10.7691 0.0000 -0.0000 -16.0368 -27.2215 7.6584 -3.9217 7.1250 -0.0000 -0.0000 -0.2889 -21.3810 -0.1637
49.7270 16.2795 -6.2164 533.1400 -104.5220 1272.8800 0.0000 0.0000 0.0000 -18.8196 -6.1141 -12.3947 3.3250 11.2035 32.9693 1.6826 -0.1056 -24.5199 1.0847 -6.6195 -18.5928 0.0000 0.0000 0.0000 21.2884 11.0474 -21.0462 -5.4983 -13.9239 42.9333 -2.6974 0.6423 -30.9494 -0.1094 -2.1331 5.8737 -0.8798 -0.1108 2.1974 -0.1208 -0.1846 2.7093 0.3703 -0.1192 1.5465 -7.0902 -7.4604 -3.1164 16.8232 -8.9524 -13.2400 6.3277 -4.9448 -2.1909 -0.0000 0.0000 0.0000 -76.6977 3.3547 31.6424 35.6455 -45.2676 -15.2701 -0.0000 0.0000 -21.3709 18.1580 17.7164 5.6994 -7.1250 0.0000 -0.0000 -9.5511 48.3277 -0.7907 -0.0000 0.0000 0.0000 85.3743 -10.2374 35.7404 -28.6306 39.6903 -10.5240 0.0000 -0.0000 -16.1812 -27.5804 7.8339 -4.0724 7.1250 -0.0000 -0.0000 -0.5393 -21.1567 -0.3083
49.7439 16.2648 -6.1947 533.2860 -104.0550 1272.6600 0.0000 0.0000 0.0000 -19.0900 -6.0487 -12.4634 3.3779 11.2830 33.2404 1.6883 0.2337 -24.6743 1.0512 -6.5197 -18.3000 0.0000 0.0000 0.0000 21.0442 11.2363 -21.1754 -5.5818 -14.0105 43.2794 -2.7100 0.8413 -30.9657 -0.0797 -1.8214 5.0122 -0.9126 -0.0332 2.3704 -0.1207 -0.0854 2.7799 0.3881 -0.0712 1.5209 -6.9681 -7.3681 -3.2484 16.7125 -8.8146 -13.4900 6.2827 -4.8852 -2.2719 -0.0000 0.0000 0.0000 -77.4000 3.2587 31.5903 35.9001 -45.4443 -15.4513 -0.0000 0.0000 -21.4374 17.7787 17.6737 5.5602 -7.1250 0.0000 -0.0000 -9.8972 48.2292 -0.7957 -0.0000 0.0000 0.0000 85.7402 -10.1077 35.5136 -28.2747 39.3679 -10.2975 0.0000 -0.0000 -16.2938 -27.9325 7.9968 -4.2185 7.1250 -0.0000 -0.0000 -0.7843 -20.9453 -0.4521
49.7592 16.2492 -6.1727 533.4540 -103.5460 1272.4200 0.0000 0.0000 0.0000 -19.3711 -5.9382 -12.5199 3.4278 11.3573 33.4945 1.6955 0.5500 -24.8369 1.0135 -6.4054 -17.9652 0.0000 0.0000 0.0000 20.7883 11.4396 -21.3179 -5.6736 -14.1044 43.6573 -2.7155 1.0805 -30.9304 -0.0586 -1.5622 4.2973 -0.9747 0.0539 2.5495 -0.1236 0.0259 2.8492 0.4188 -0.0178 1.4903 -6.8466 -7.2758 -3.3839 16.6146 -8.6795 -13.7111 6.2402 -4.8264 -2.3425 0.0000 -0.0000 0.0000 -78.1387 3.1856 31.5579 36.0895 -45.5746 -15.5864 -0.0000 0.0000 -21.4304 17.4160 17.6412 5.4305 -7.1250 0.0000 -0.0000 -10.2298 48.1440 -0.8013 0.0000 -0.0000 0.0000 86.0740 -9.9662 35.3561 -27.9611 39.0804 -10.0992 0.0000 -0.0000 -16.3377 -28.2829 8.1286 -4.3506 7.1250 -0.0000 -0.0000 -1.0288 -20.7676 -0.5972
49.7730 16.2327 -6.1504 533.6400 -103.0090 1272.1600 0.0000 0.0000 0.0000 -19.6572 -5.7891 -12.5667 3.4745 11.4262 33.7311 1.7047 0.8446 -25.0102 0.9745 -6.2845 -17.6123 0.0000 0.0000 0.0000 20.5253 11.6534 -21.4769 -5.7736 -14.2053 44.0660 -2.7150 1.3501 -30.8541 -0.0440 -1.3543 3.7242 -1.0621 0.1454 2.7322 -0.1276 0.1423 2.9158 0.4620 0.0377 1.4548 -6.7176 -7.1830 -3.5337 16.5161 -8.5470 -13.8938 6.1940 -4.7674 -2.3993 -0.0000 0.0000 0.0000 -78.9043 3.1288 31.5488 36.2002 -45.6503 -15.6655 -0.0000 0.0000 -21.3292 17.0864 17.5919 5.3076 -7.1250 0.0000 -0.0000 -10.5253 48.0468 -0.7994 -0.0000 0.0000 0.0000 86.3761 -9.8158 35.2548 -27.6964 38.8352 -9.9327 0.0000 -0.0000 -16.2861 -28.6239 8.2302 -4.4672 7.1250 -0.0000 -0.0000 -1.2676 -20.6238 -0.7400
49.7854 16.2154 -6.1281 533.8530 -102.4560 1271.8800 0.0000 0.0000 0.0000 -19.9446 -5.6081 -12.6102 3.5183 11.4902 33.9517 1.7167 1.1082 -25.1949 0.9352 -6.1600 -17.2492 0.0000 0.0000 0.0000 20.2556 11.8737 -21.6561 -5.8813 -14.3123 44.5033 -2.7098 1.6311 -30.7496 -0.0334 -1.1802 3.2447 -1.1726 0.2369 2.9127 -0.1321 0.2580 2.9739 0.5170 0.0926 1.4112 -6.5809 -7.0902 -3.6896 16.4140 -8.4190 -14.0316 6.1431 -4.7089 -2.4419 -0.0000 -0.0000 0.0000 -79.6845 3.0909 31.5799 36.2312 -45.6715 -15.6876 -0.0000 0.0000 -21.1329 16.8105 17.5252 5.1982 -7.1250 0.0000 -0.0000 -10.7643 47.9399 -0.7893 -0.0000 -0.0000 0.0000 86.6511 -9.6638 35.1892 -27.4780 38.6313 -9.7961 0.0000 -0.0000 -16.1289 -28.9459 8.3021 -4.5660 7.1250 -0.0000 -0.0000 -1.4942 -20.5141 -0.8761
49.7961 16.1975 -6.1056 534.1170 -101.9000 1271.5500 0.0000 0.0000 0.0000 -20.2322 -5.3974 -12.6582 3.5604 11.5512 34.1622 1.7301 1.3409 -25.3809 0.8994 -6.0442 -16.9127 0.0000 0.0000 0.0000 19.9774 12.0957 -21.8569 -5.9969 -14.4253 44.9693 -2.7010 1.9000 -30.6294 -0.0248 -1.0164 2.7939 -1.3042 0.3237 3.0832 -0.1391 0.3668 3.0240 0.5811 0.1437 1.3649 -6.4310 -6.9954 -3.8511 16.2979 -8.2931 -14.1231 6.0835 -4.6495 -2.4709 -0.0000 0.0000 0.0000 -80.4697 3.0640 31.6511 36.1750 -45.6332 -15.6475 -0.0000 0.0000 -20.8395 16.6044 17.4423 5.1077 -7.1250 0.0000 -0.0000 -10.9322 47.8270 -0.7712 -0.0000 0.0000 0.0000 86.9057 -9.5104 35.1401 -27.3038 38.4674 -9.6875 0.0000 -0.0000 -15.8897 -29.2246 8.3681 -4.6546 7.1250 -0.0000 -0.0000 -1.6896 -20.4143 -0.9945
49.8051 16.1791 -6.0832 534.4640 -101.3510 1271.1500 0.0000 0.0000 0.0000 -20.5205 -5.1569 -12.7259 3.6024 11.6116 34.3715 1.7443 1.5311 -25.5564 0.8679 -5.9402 -16.6111 0.0000 0.0000 0.0000 19.6856 12.3155 -22.0827 -6.1204 -14.5440 45.4629 -2.6893 2.1544 -30.4982 -0.0179 -0.8639 2.3743 -1.4556 0.4014 3.2302 -0.1496 0.4632 3.0702 0.6525 0.1884 1.3273 -6.2773 -6.8991 -4.0225 16.1742 -8.1696 -14.1676 6.0184 -4.5890 -2.4845 -0.0000 -0.0000 0.0000 -81.2486 3.0433 31.7715 36.0438 -45.5432 -15.5537 -0.0000 0.0000 -20.4707 16.4755 17.3675 5.0450 -7.1250 0.0000 -0.0000 -11.0300 47.7334 -0.7525 -0.0000 -0.0000 0.0000 87.1396 -9.3500 35.1058 -27.1744 38.3450 -9.6071 0.0000 -0.0000 -15.6121 -29.4673 8.4248 -4.7322 7.1250 -0.0000 -0.0000 -1.8595 -20.3277 -1.0983
49.8126 16.1600 -6.0609 534.9030 -100.8160 1270.6700 0.0000 0.0000 0.0000 -20.8064 -4.8851 -12.8250 3.6466 11.6747 34.5906 1.7585 1.6658 -25.7113 0.8391 -5.8433 -16.3305 0.0000 0.0000 0.0000 19.3816 12.5309 -22.3338 -6.2515 -14.6678 45.9831 -2.6744 2.3864 -30.3547 -0.0125 -0.7223 1.9849 -1.6166 0.4675 3.3555 -0.1684 0.5440 3.1101 0.7210 0.2252 1.2954 -6.1224 -6.7970 -4.1861 16.0511 -8.0412 -14.1800 5.9525 -4.5251 -2.4902 0.0000 0.0000 0.0000 -82.0053 3.0301 31.9424 35.8496 -45.4093 -15.4153 -0.0000 0.0000 -20.0589 16.4170 17.3124 5.0108 -7.1250 0.0000 -0.0000 -11.0679 47.6696 -0.7376 0.0000 0.0000 0.0000 87.3608 -9.1980 35.0879 -27.0997 38.2741 -9.5608 0.0000 -0.0000 -15.3510 -29.6882 8.4731 -4.8018 7.1250 -0.0000 -0.0000 -2.0141 -20.2522 -1.1931
49.8184 16.1402 -6.0387 535.4450 -100.3030 1270.1000 0.0000 0.0000 0.0000 -21.0872 -4.5807 -12.9606 3.6950 11.7431 34.8292 1.7724 1.7415 -25.8404 0.8145 -5.7592 -16.0873 0.0000 0.0000 0.0000 19.0678 12.7367 -22.6050 -6.3896 -14.7955 46.5259 -2.6558 2.6045 -30.1946 -0.0091 -0.6168 1.6951 -1.7818 0.5181 3.4579 -0.1980 0.6043 3.1494 0.7811 0.2518 1.2761 -5.9618 -6.6883 -4.3504 15.9296 -7.9066 -14.1631 5.8852 -4.4573 -2.4877 0.0000 0.0000 0.0000 -82.7236 3.0268 32.1634 35.6227 -45.2517 -15.2539 -0.0000 0.0000 -19.6715 16.3968 17.2844 4.9965 -7.1250 0.0000 -0.0000 -11.0783 47.6384 -0.7297 0.0000 0.0000 0.0000 87.5715 -9.0493 35.1006 -27.0819 38.2572 -9.5498 0.0000 -0.0000 -15.1557 -29.9107 8.5030 -4.8619 7.1250 -0.0000 -0.0000 -2.1710 -20.1972 -1.2889
49.8227 16.1197 -6.0168 536.0910 -99.8215 1269.4200 0.0000 0.0000 0.0000 -21.3612 -4.2547 -13.1299 3.7489 11.8185 35.0930 1.7867 1.7606 -25.9494 0.7935 -5.6861 -15.8762 0.0000 0.0000 0.0000 18.7495 12.9249 -22.8929 -6.5332 -14.9258 47.0858 -2.6326 2.7992 -30.0139 -0.0074 -0.5568 1.5301 -1.9449 0.5498 3.5479 -0.2397 0.6394 3.1856 0.8283 0.2659 1.2610 -5.7995 -6.5698 -4.5078 15.8169 -7.7601 -14.1271 5.8202 -4.3835 -2.4811 -0.0000 0.0000 0.0000 -83.3957 3.0370 32.4349 35.3851 -45.0851 -15.0854 -0.0000 0.0000 -19.3445 16.4309 17.3097 5.0145 -7.1250 0.0000 -0.0000 -11.0541 47.6687 -0.7364 -0.0000 0.0000 0.0000 87.7724 -8.9177 35.1524 -27.1268 38.2998 -9.5776 0.0000 -0.0000 -15.0530 -30.1558 8.5229 -4.9213 7.1250 -0.0000 -0.0000 -2.3447 -20.1512 -1.3946
49.8253 16.0985 -5.9954 536.8220 -99.3841 1268.6600 0.0000 0.0000 0.0000 -21.6232 -3.9176 -13.3189 3.8080 11.9005 35.3809 1.8026 1.7281 -26.0488 0.7758 -5.6236 -15.6962 0.0000 0.0000 0.0000 18.4373 13.0886 -23.1837 -6.6800 -15.0564 47.6533 -2.6058 2.9699 -29.8174 -0.0076 -0.5617 1.5436 -2.1005 0.5607 3.6341 -0.2903 0.6470 3.2165 0.8627 0.2666 1.2437 -5.6458 -6.4464 -4.6466 15.7177 -7.6083 -14.0694 5.7607 -4.3069 -2.4701 0.0000 0.0000 0.0000 -84.0199 3.0706 32.7582 35.1634 -44.9285 -14.9286 -0.0000 0.0000 -19.1152 16.5224 17.4158 5.0737 -7.1250 0.0000 -0.0000 -11.0009 47.7888 -0.7657 0.0000 0.0000 0.0000 87.9607 -8.8138 35.2429 -27.2320 38.3996 -9.6429 0.0000 -0.0000 -15.0394 -30.4366 8.5299 -4.9807 7.1250 -0.0000 -0.0000 -2.5448 -20.1162 -1.5158
49.8261 16.0767 -5.9746 537.6310 -98.9986 1267.8100 0.0000 0.0000 0.0000 -21.8735 -3.5781 -13.5104 3.8712 11.9871 35.6862 1.8205 1.6624 -26.1484 0.7640 -5.5819 -15.5760 0.0000 0.0000 0.0000 18.1375 13.2173 -23.4652 -6.8274 -15.1848 48.2185 -2.5769 3.1133 -29.6138 -0.0096 -0.6333 1.7404 -2.2470 0.5491 3.7207 -0.3490 0.6245 3.2497 0.8844 0.2524 1.2294 -5.4957 -6.3174 -4.7705 15.6306 -7.4488 -14.0085 5.7063 -4.2272 -2.4603 0.0000 -0.0000 0.0000 -84.5957 3.1151 33.1186 34.9687 -44.7897 -14.7913 -0.0000 0.0000 -19.0067 16.6662 17.5623 5.1617 -7.1250 0.0000 -0.0000 -10.9111 47.9571 -0.8050 0.0000 -0.0000 0.0000 88.1335 -8.7295 35.3741 -27.3949 38.5532 -9.7442 0.0000 -0.0000 -15.1001 -30.7288 8.5324 -5.0402 7.1250 -0.0000 -0.0000 -2.7532 -20.0851 -1.6422
